ffmpeg started on 2016-12-06 at 06:10:39
Report written to "Output/x264/results/ffmpeg/sintelfast5000k.log"
Command line:
Tools/ffmpeg/ffmpeg -benchmark -y -i Input/y4m/sintel.y4m -c:v libx264 -preset fast -b:v 5000k -an Output/x264/encoded/sintelfast5000k.mkv
ffmpeg version N-82227-gdb23fde Copyright (c) 2000-2016 the FFmpeg developers
  built with gcc 5.4.0 (Ubuntu 5.4.0-6ubuntu1~16.04.2) 20160609
  configuration: --prefix=/home/jaroslav/ffmpeg_build --pkg-config-flags=--static --extra-cflags=-I/home/jaroslav/ffmpeg_build/include --extra-ldflags=-L/home/jaroslav/ffmpeg_build/lib --bindir=/home/jaroslav/bin --enable-gpl --enable-libass --enable-libfdk-aac --enable-libfreetype --enable-libmp3lame --enable-libopus --enable-libtheora --enable-libvorbis --enable-libvpx --enable-libx264 --enable-libx265 --enable-nvenc --enable-libmfx --enable-libxvid --enable-libgsm --enable-libopencore-amrnb --enable-version3 --enable-nonfree
  libavutil      55. 35.100 / 55. 35.100
  libavcodec     57. 66.101 / 57. 66.101
  libavformat    57. 57.100 / 57. 57.100
  libavdevice    57.  2.100 / 57.  2.100
  libavfilter     6. 66.100 /  6. 66.100
  libswscale      4.  3.100 /  4.  3.100
  libswresample   2.  4.100 /  2.  4.100
  libpostproc    54.  2.100 / 54.  2.100
Input #0, yuv4mpegpipe, from 'Input/y4m/sintel.y4m':
  Duration: 00:00:20.83, start: 0.000000, bitrate: 2057307 kb/s
    Stream #0:0: Video: rawvideo (I420 / 0x30323449), yuv420p(progressive), 4096x1744, SAR 1:1 DAR 256:109, 24 fps, 24 tbr, 24 tbn, 24 tbc
[libx264 @ 0x3928120] using SAR=1/1
[libx264 @ 0x3928120] using cpu capabilities: MMX2 SSE2Fast SSSE3 SSE4.2 AVX FMA3 AVX2 LZCNT BMI2
[libx264 @ 0x3928120] profile High, level 5.1
[libx264 @ 0x3928120] 264 - core 148 - H.264/MPEG-4 AVC codec - Copyleft 2003-2016 - http://www.videolan.org/x264.html - options: cabac=1 ref=2 deblock=1:0:0 analyse=0x3:0x113 me=hex subme=6 psy=1 psy_rd=1.00:0.00 mixed_ref=1 me_range=16 chroma_me=1 trellis=1 8x8dct=1 cqm=0 deadzone=21,11 fast_pskip=1 chroma_qp_offset=-2 threads=6 lookahead_threads=1 sliced_threads=0 nr=0 decimate=1 interlaced=0 bluray_compat=0 constrained_intra=0 bframes=3 b_pyramid=2 b_adapt=1 b_bias=0 direct=1 weightb=1 open_gop=0 weightp=1 keyint=250 keyint_min=24 scenecut=40 intra_refresh=0 rc_lookahead=30 rc=abr mbtree=1 bitrate=5000 ratetol=1.0 qcomp=0.60 qpmin=0 qpmax=69 qpstep=4 ip_ratio=1.40 aq=1:1.00
Output #0, matroska, to 'Output/x264/encoded/sintelfast5000k.mkv':
  Metadata:
    encoder         : Lavf57.57.100
    Stream #0:0: Video: h264 (libx264) (H264 / 0x34363248), yuv420p, 4096x1744 [SAR 1:1 DAR 256:109], q=-1--1, 5000 kb/s, 24 fps, 1k tbn, 24 tbc
    Metadata:
      encoder         : Lavc57.66.101 libx264
    Side data:
      cpb: bitrate max/min/avg: 0/0/5000000 buffer size: 0 vbv_delay: -1
Stream mapping:
  Stream #0:0 -> #0:0 (rawvideo (native) -> h264 (libx264))
Press [q] to stop, [?] for help
frame=    3 fps=1.0 q=0.0 size=       0kB time=00:00:00.00 bitrate=N/A speed=   0x    frame=   12 fps=3.4 q=0.0 size=       0kB time=00:00:00.00 bitrate=N/A speed=   0x    frame=   21 fps=5.2 q=0.0 size=       0kB time=00:00:00.00 bitrate=N/A speed=   0x    frame=   30 fps=6.5 q=0.0 size=       0kB time=00:00:00.00 bitrate=N/A speed=   0x    frame=   37 fps=5.6 q=0.0 size=       0kB time=00:00:00.00 bitrate=N/A speed=   0x    frame=   43 fps=5.9 q=31.0 size=       1kB time=00:00:00.00 bitrate=5872.0kbits/s speed=0.000138x    frame=   46 fps=5.9 q=37.0 size=       1kB time=00:00:00.12 bitrate=  46.6kbits/s speed=0.0162x    frame=   50 fps=6.0 q=49.0 size=       1kB time=00:00:00.29 bitrate=  20.0kbits/s speed=0.0352x    frame=   57 fps=6.3 q=49.0 size=       1kB time=00:00:00.58 bitrate=  10.1kbits/s speed=0.0649x    frame=   64 fps=6.7 q=49.0 size=       1kB time=00:00:00.87 bitrate=   6.7kbits/s speed=0.0918x    frame=   72 fps=7.1 q=48.0 size=       1kB time=00:00:01.20 bitrate=   4.9kbits/s speed=0.119x    frame=   78 fps=7.3 q=48.0 size=       1kB time=00:00:01.45 bitrate=   4.0kbits/s speed=0.137x    frame=   85 fps=7.6 q=47.0 size=       1kB time=00:00:01.75 bitrate=   3.4kbits/s speed=0.156x    frame=   94 fps=8.0 q=46.0 size=       1kB time=00:00:02.12 bitrate=   2.8kbits/s speed=0.181x    frame=   99 fps=8.1 q=46.0 size=       1kB time=00:00:02.33 bitrate=   2.5kbits/s speed=0.191x    frame=  105 fps=8.2 q=46.0 size=       1kB time=00:00:02.58 bitrate=   2.3kbits/s speed=0.202x    frame=  111 fps=8.3 q=46.0 size=       1kB time=00:00:02.83 bitrate=   2.1kbits/s speed=0.212x    frame=  116 fps=8.4 q=46.0 size=       1kB time=00:00:03.04 bitrate=   1.9kbits/s speed=0.22x    frame=  122 fps=8.5 q=45.0 size=       1kB time=00:00:03.29 bitrate=   1.8kbits/s speed=0.229x    frame=  128 fps=8.5 q=45.0 size=       1kB time=00:00:03.54 bitrate=   1.7kbits/s speed=0.236x    frame=  135 fps=8.7 q=45.0 size=       1kB time=00:00:03.83 bitrate=   1.5kbits/s speed=0.247x    frame=  142 fps=8.8 q=45.0 size=    2794kB time=00:00:04.12 bitrate=5546.4kbits/s speed=0.256x    frame=  148 fps=8.9 q=45.0 size=    2794kB time=00:00:04.37 bitrate=5229.5kbits/s speed=0.262x    frame=  157 fps=9.1 q=45.0 size=    2794kB time=00:00:04.75 bitrate=4816.8kbits/s speed=0.275x    frame=  163 fps=9.1 q=45.0 size=    2794kB time=00:00:05.00 bitrate=4576.0kbits/s speed=0.28x    frame=  171 fps=9.2 q=45.0 size=    2794kB time=00:00:05.33 bitrate=4290.3kbits/s speed=0.288x    frame=  180 fps=9.4 q=45.0 size=    2794kB time=00:00:05.70 bitrate=4008.5kbits/s speed=0.298x    frame=  188 fps=9.5 q=44.0 size=    2794kB time=00:00:06.04 bitrate=3786.9kbits/s speed=0.306x    frame=  195 fps=9.6 q=44.0 size=    2794kB time=00:00:06.33 bitrate=3613.0kbits/s speed=0.313x    frame=  204 fps=9.8 q=44.0 size=    4179kB time=00:00:06.70 bitrate=5103.2kbits/s speed=0.322x    frame=  211 fps=9.9 q=44.0 size=    4179kB time=00:00:07.00 bitrate=4890.4kbits/s speed=0.327x    frame=  218 fps=9.9 q=44.0 size=    4179kB time=00:00:07.29 bitrate=4694.6kbits/s speed=0.332x    frame=  224 fps=9.9 q=44.0 size=    4713kB time=00:00:07.54 bitrate=5119.0kbits/s speed=0.334x    frame=  232 fps= 10 q=43.0 size=    4713kB time=00:00:07.87 bitrate=4902.5kbits/s speed=0.341x    frame=  239 fps= 10 q=43.0 size=    4713kB time=00:00:08.16 bitrate=4727.3kbits/s speed=0.346x    frame=  246 fps= 10 q=43.0 size=    4713kB time=00:00:08.45 bitrate=4564.6kbits/s speed=0.35x    frame=  254 fps= 10 q=43.0 size=    4713kB time=00:00:08.79 bitrate=4391.3kbits/s speed=0.355x    frame=  260 fps= 10 q=43.0 size=    4713kB time=00:00:09.04 bitrate=4269.9kbits/s speed=0.358x    frame=  268 fps= 10 q=43.0 size=    4713kB time=00:00:09.37 bitrate=4118.2kbits/s speed=0.363x    frame=  275 fps= 10 q=43.0 size=    4713kB time=00:00:09.66 bitrate=3993.8kbits/s speed=0.365x    frame=  283 fps= 10 q=42.0 size=    4713kB time=00:00:10.00 bitrate=3860.8kbits/s speed=0.371x    frame=  292 fps= 11 q=42.0 size=    4713kB time=00:00:10.37 bitrate=3721.3kbits/s speed=0.377x    frame=  300 fps= 11 q=42.0 size=    4713kB time=00:00:10.70 bitrate=3605.6kbits/s speed=0.38x    frame=  302 fps= 11 q=42.0 size=    4713kB time=00:00:10.79 bitrate=3577.5kbits/s speed=0.377x    frame=  311 fps= 11 q=42.0 size=    6304kB time=00:00:11.16 bitrate=4624.2kbits/s speed=0.383x    frame=  319 fps= 11 q=42.0 size=    6304kB time=00:00:11.50 bitrate=4490.3kbits/s speed=0.388x    frame=  324 fps= 11 q=41.0 size=    6304kB time=00:00:11.70 bitrate=4410.5kbits/s speed=0.388x    frame=  333 fps= 11 q=41.0 size=    6304kB time=00:00:12.08 bitrate=4273.7kbits/s speed=0.393x    frame=  343 fps= 11 q=41.0 size=    6304kB time=00:00:12.50 bitrate=4131.1kbits/s speed= 0.4x    frame=  353 fps= 11 q=40.0 size=    6304kB time=00:00:12.91 bitrate=3997.8kbits/s speed=0.407x    frame=  362 fps= 11 q=40.0 size=    6304kB time=00:00:13.29 bitrate=3885.0kbits/s speed=0.412x    frame=  372 fps= 11 q=40.0 size=    6304kB time=00:00:13.70 bitrate=3767.1kbits/s speed=0.418x    frame=  380 fps= 11 q=39.0 size=    6304kB time=00:00:14.04 bitrate=3677.5kbits/s speed=0.421x    frame=  390 fps= 12 q=38.0 size=    6304kB time=00:00:14.45 bitrate=3571.7kbits/s speed=0.427x    frame=  399 fps= 12 q=38.0 size=    6304kB time=00:00:14.83 bitrate=3481.4kbits/s speed=0.43x    frame=  407 fps= 12 q=38.0 size=    7684kB time=00:00:15.16 bitrate=4149.9kbits/s speed=0.433x    frame=  413 fps= 12 q=38.0 size=    7684kB time=00:00:15.41 bitrate=4082.6kbits/s speed=0.432x    frame=  420 fps= 12 q=38.0 size=    7684kB time=00:00:15.70 bitrate=4007.0kbits/s speed=0.433x    frame=  429 fps= 12 q=38.0 size=    7684kB time=00:00:16.08 bitrate=3913.6kbits/s speed=0.437x    frame=  434 fps= 12 q=38.0 size=    7684kB time=00:00:16.29 bitrate=3863.4kbits/s speed=0.436x    frame=  442 fps= 12 q=38.0 size=    7684kB time=00:00:16.62 bitrate=3786.0kbits/s speed=0.437x    frame=  449 fps= 12 q=38.0 size=    7684kB time=00:00:16.91 bitrate=3720.6kbits/s speed=0.439x    frame=  459 fps= 12 q=38.0 size=    9076kB time=00:00:17.33 bitrate=4289.3kbits/s speed=0.443x    frame=  465 fps= 12 q=38.0 size=    9076kB time=00:00:17.58 bitrate=4228.4kbits/s speed=0.444x    frame=  472 fps= 12 q=38.0 size=    9076kB time=00:00:17.87 bitrate=4159.3kbits/s speed=0.445x    frame=  480 fps= 12 q=38.0 size=    9076kB time=00:00:18.20 bitrate=4083.2kbits/s speed=0.448x    frame=  487 fps= 12 q=38.0 size=    9076kB time=00:00:18.50 bitrate=4018.8kbits/s speed=0.447x    frame=  495 fps= 12 q=37.0 size=    9076kB time=00:00:18.83 bitrate=3947.7kbits/s speed=0.45x    frame=  500 fps= 12 q=37.0 size=    9076kB time=00:00:19.04 bitrate=3904.4kbits/s speed=0.449x    frame=  500 fps= 11 q=-1.0 Lsize=   10836kB time=00:00:20.70 bitrate=4286.5kbits/s speed=0.467x    
video:10831kB audio:0kB subtitle:0kB other streams:0kB global headers:0kB muxing overhead: 0.043674%
bench: utime=142.340s
bench: maxrss=1322252kB
[libx264 @ 0x3928120] frame I:8     Avg QP:32.95  size: 72782
[libx264 @ 0x3928120] frame P:269   Avg QP:38.36  size: 24852
[libx264 @ 0x3928120] frame B:223   Avg QP:35.92  size: 17144
[libx264 @ 0x3928120] consecutive B-frames: 37.0%  8.4%  6.6% 48.0%
[libx264 @ 0x3928120] mb I  I16..4: 27.2% 71.0%  1.8%
[libx264 @ 0x3928120] mb P  I16..4: 15.1% 25.3%  0.1%  P16..4: 13.3%  0.9%  0.3%  0.0%  0.0%    skip:45.0%
[libx264 @ 0x3928120] mb B  I16..4:  6.5%  5.0%  0.1%  B16..8: 12.9%  0.9%  0.0%  direct: 4.6%  skip:70.1%  L0:43.3% L1:54.3% BI: 2.4%
[libx264 @ 0x3928120] final ratefactor: 35.03
[libx264 @ 0x3928120] 8x8 transform intra:59.5% inter:93.7%
[libx264 @ 0x3928120] coded y,uvDC,uvAC intra: 8.7% 17.3% 0.5% inter: 2.4% 2.3% 0.0%
[libx264 @ 0x3928120] i16 v,h,dc,p: 38% 33%  8% 21%
[libx264 @ 0x3928120] i8 v,h,dc,ddl,ddr,vr,hd,vl,hu: 20% 12% 60%  1%  1%  1%  2%  1%  1%
[libx264 @ 0x3928120] i4 v,h,dc,ddl,ddr,vr,hd,vl,hu: 19% 27% 12%  6% 10%  6% 11%  4%  6%
[libx264 @ 0x3928120] i8c dc,h,v,p: 88%  6%  6%  0%
[libx264 @ 0x3928120] Weighted P-Frames: Y:0.7% UV:0.0%
[libx264 @ 0x3928120] ref P L0: 76.8% 23.2%
[libx264 @ 0x3928120] ref B L0: 85.2% 14.8%
[libx264 @ 0x3928120] ref B L1: 97.0%  3.0%
[libx264 @ 0x3928120] kb/s:4258.77
